# xmcd
#
# Track frame offsets: 
#        300
#        14361
#        33504
#        69041
#        91859
#        105624
#        120493
#        137246
#        159377
#        176058
#        198272
#
# Disc length: 3080 seconds
#
# Revision: 3
# Processed by: cddbd v1.5.2PL0 Copyright (c) Steve Scherf et al.
# Submitted via: ExactAudioCopy v0.99pb5
#
DISCID=880c040b
DTITLE=Julian Sas - Where will it end!?
DYEAR=1996
DGENRE=Hard Blues
TTITLE0=Turpentine Moan
TTITLE1=Honey Babe
TTITLE2=Make Up Your Mind
TTITLE3=Goin' Down
TTITLE4=Tryin' To Do Right
TTITLE5=Travelling Home
TTITLE6=Home Feeling
TTITLE7=Voodoo Love
TTITLE8=I Don't Know
TTITLE9=Stranger Blues
TTITLE10=Serves Me Right To Suffer
EXTD=
EXTT0=
EXTT1=
EXTT2=
EXTT3=
EXTT4=
EXTT5=
EXTT6=
EXTT7=
EXTT8=
EXTT9=
EXTT10=
PLAYORDER=
